<svg width="37" height="37" viewBox="0 0 37 37" fill="none" xmlns="http://www.w3.org/2000/svg">
<path d="M7.24219 19.3019L15.1929 27.3563L36 6.54883" stroke="#FF577F" stroke-width="2" stroke-linecap="round" stroke-linejoin="round"/>
<path d="M7.24219 19.3019L15.1929 27.3563L36 6.54883" stroke="url(#paint0_linear)" stroke-opacity="0.4" stroke-width="2" stroke-linecap="round" stroke-linejoin="round"/>
<path d="M29.7832 5.4916C26.7266 2.70158 22.6594 1 18.1947 1C8.69835 1 1 8.69835 1 18.1947C1 27.6911 8.69835 35.3895 18.1947 35.3895C27.6911 35.3895 35.3895 27.6911 35.3895 18.1947C35.3895 16.8116 35.2262 15.4665 34.9177 14.1779" stroke="#2453FF" stroke-width="2" stroke-linecap="round" stroke-linejoin="round"/>
<path d="M29.7832 5.4916C26.7266 2.70158 22.6594 1 18.1947 1C8.69835 1 1 8.69835 1 18.1947C1 27.6911 8.69835 35.3895 18.1947 35.3895C27.6911 35.3895 35.3895 27.6911 35.3895 18.1947C35.3895 16.8116 35.2262 15.4665 34.9177 14.1779" stroke="url(#paint1_linear)" stroke-opacity="0.4" stroke-width="2" stroke-linecap="round" stroke-linejoin="round"/>
<defs>
<linearGradient id="paint0_linear" x1="9.91372" y1="2.3874" x2="37.4972" y2="2.3874" gradientUnits="userSpaceOnUse">
<stop stop-color="white"/>
<stop offset="1" stop-color="white" stop-opacity="0"/>
</linearGradient>
<linearGradient id="paint1_linear" x1="5.7026" y1="32.999" x2="26.443" y2="1.42665" gradientUnits="userSpaceOnUse">
<stop stop-color="white"/>
<stop offset="1" stop-color="white" stop-opacity="0"/>
</linearGradient>
</defs>
</svg>
